<svg width="36" height="36" viewBox="0 0 36 36" fill="none" xmlns="http://www.w3.org/2000/svg">
<g clip-path="url(#clip0_8_6)">
<path d="M17.99 35.98C8.11001 35.98 0.0100098 27.88 0.0100098 17.99C0.0100098 8.09001 8.12001 -0.00999075 18.03 9.24932e-06C27.92 0.0100092 36 8.12001 36 18.01C36 27.9 27.89 35.99 18 35.99L17.99 35.98ZM13.9 14.4C13.39 16.81 13.39 19.19 13.9 21.56H22.14C22.18 21.33 22.22 21.11 22.27 20.9C22.53 19.64 22.78 18.37 22.65 17.08C22.57 16.3 22.45 15.53 22.38 14.75C22.36 14.48 22.26 14.41 22 14.41C19.7 14.42 17.41 14.41 15.11 14.41C14.71 14.41 14.32 14.41 13.91 14.41L13.9 14.4ZM10.29 21.58C10.12 19.19 9.95001 16.81 10.26 14.44C10.21 14.42 10.17 14.41 10.14 14.41C8.21001 14.41 6.28001 14.41 4.34001 14.41C4.25001 14.41 4.12001 14.55 4.08001 14.65C3.75001 15.65 3.63001 16.68 3.61001 17.72C3.58001 18.95 3.72001 20.17 4.09001 21.35C4.12001 21.44 4.25001 21.56 4.34001 21.56C6.29001 21.57 8.25001 21.56 10.28 21.56L10.29 21.58ZM32.05 21.56C32.74 19.18 32.75 16.8 32.05 14.42H25.92C26.05 16.81 26.25 19.17 25.92 21.56H32.05ZM18 3.62001C16.51 5.86001 15.34 8.19001 14.6 10.77H21.4C20.71 8.17001 19.5 5.85001 18 3.62001ZM18 32.35C19.49 30.11 20.66 27.77 21.4 25.21H14.61C15.3 27.81 16.51 30.12 18.01 32.35H18ZM22.7 4.33001C22.78 4.51001 22.83 4.62001 22.88 4.73001C23.8 6.60001 24.63 8.50001 25.12 10.53C25.18 10.76 25.29 10.79 25.49 10.79C27.02 10.79 28.56 10.79 30.09 10.79C30.17 10.79 30.26 10.77 30.39 10.75C28.62 7.63001 25.98 5.65001 22.69 4.33001H22.7ZM13.3 31.65C13.22 31.47 13.17 31.35 13.11 31.24C12.19 29.37 11.36 27.47 10.87 25.44C10.82 25.24 10.73 25.18 10.53 25.19C8.97001 25.19 7.42001 25.19 5.86001 25.19C5.79001 25.19 5.73001 25.2 5.60001 25.21C7.36001 28.34 10.01 30.31 13.31 31.65H13.3ZM22.67 31.65C25.99 30.3 28.64 28.33 30.4 25.2H25.19C24.65 27.44 23.81 29.55 22.67 31.65ZM13.21 4.37001C10 5.66001 7.43001 7.73001 5.62001 10.76C5.71001 10.78 5.74001 10.79 5.78001 10.79C7.37001 10.79 8.97001 10.79 10.56 10.79C10.75 10.79 10.82 10.73 10.87 10.55C11.02 9.98001 11.16 9.39001 11.38 8.84001C11.97 7.34001 12.6 5.86001 13.21 4.37001Z" fill="#898888"/>
</g>
<defs>
<clipPath id="clip0_8_6">
<rect width="35.99" height="35.99" fill="white" transform="translate(0.0100098)"/>
</clipPath>
</defs>
</svg>
