{
  "accessors": [
    {
      "bufferView": 1,
      "componentType": 5126,
      "count": 5403,
      "max": [
        154.0,
        -0.0,
        -106.56099700927734
      ],
      "min": [
        61.0,
        -260.0,
        -112.0
      ],
      "type": "VEC3"
    },
    {
      "bufferView": 1,
      "byteOffset": 64836,
      "componentType": 5126,
      "count": 5403,
      "max": [
        0.9993849992752075,
        1.0,
        1.0
      ],
      "min": [
        -1.0,
        -1.0,
        -1.0
      ],
      "type": "VEC3"
    },
    {
      "bufferView": 0,
      "componentType": 5125,
      "count": 17790,
      "type": "SCALAR"
    },
    {
      "bufferView": 1,
      "byteOffset": 129672,
      "componentType": 5126,
      "count": 19981,
      "max": [
        97.0,
        -0.0,
        -55.064998626708984
      ],
      "min": [
        35.52000045776367,
        -176.11399841308594,
        -91.0
      ],
      "type": "VEC3"
    },
    {
      "bufferView": 1,
      "byteOffset": 369444,
      "componentType": 5126,
      "count": 19981,
      "max": [
        0.9997894763946533,
        0.9999803304672241,
        0.9998772740364075
      ],
      "min": [
        -0.9999071955680847,
        -0.9999531507492065,
        -0.9999874830245972
      ],
      "type": "VEC3"
    },
    {
      "bufferView": 0,
      "byteOffset": 71160,
      "componentType": 5125,
      "count": 116352,
      "type": "SCALAR"
    },
    {
      "bufferView": 1,
      "byteOffset": 609216,
      "componentType": 5126,
      "count": 522,
      "max": [
        154.0,
        -90.0,
        1.0
      ],
      "min": [
        10.0,
        -202.0,
        -37.0
      ],
      "type": "VEC3"
    },
    {
      "bufferView": 1,
      "byteOffset": 615480,
      "componentType": 5126,
      "count": 522,
      "max": [
        0.9235377907752991,
        1.0,
        0.9238907694816589
      ],
      "min": [
        -0.9242388606071472,
        -1.0,
        -0.9239315986633301
      ],
      "type": "VEC3"
    },
    {
      "bufferView": 0,
      "byteOffset": 536568,
      "componentType": 5125,
      "count": 1086,
      "type": "SCALAR"
    },
    {
      "bufferView": 1,
      "byteOffset": 621744,
      "componentType": 5126,
      "count": 321,
      "max": [
        153.1999969482422,
        -78.0,
        -182.0
      ],
      "min": [
        131.0,
        -169.39999389648438,
        -231.0
      ],
      "type": "VEC3"
    },
    {
      "bufferView": 1,
      "byteOffset": 625596,
      "componentType": 5126,
      "count": 321,
      "max": [
        1.0,
        1.0,
        1.0
      ],
      "min": [
        -1.0,
        -1.0,
        -1.0
      ],
      "type": "VEC3"
    },
    {
      "bufferView": 0,
      "byteOffset": 540912,
      "componentType": 5125,
      "count": 1062,
      "type": "SCALAR"
    },
    {
      "bufferView": 1,
      "byteOffset": 629448,
      "componentType": 5126,
      "count": 4218,
      "max": [
        182.0,
        -0.0,
        211.0
      ],
      "min": [
        -32.0,
        -260.0,
        -271.0
      ],
      "type": "VEC3"
    },
    {
      "bufferView": 1,
      "byteOffset": 680064,
      "componentType": 5126,
      "count": 4218,
      "max": [
        1.0,
        1.0,
        1.0
      ],
      "min": [
        -1.0,
        -1.0,
        -1.0
      ],
      "type": "VEC3"
    },
    {
      "bufferView": 0,
      "byteOffset": 545160,
      "componentType": 5125,
      "count": 10671,
      "type": "SCALAR"
    },
    {
      "bufferView": 1,
      "byteOffset": 730680,
      "componentType": 5126,
      "count": 11099,
      "max": [
        153.0,
        -90.0,
        121.19999694824219
      ],
      "min": [
        0.0,
        -235.43699645996094,
        4.8520002365112305
      ],
      "type": "VEC3"
    },
    {
      "bufferView": 1,
      "byteOffset": 863868,
      "componentType": 5126,
      "count": 11099,
      "max": [
        1.0,
        1.0,
        1.0
      ],
      "min": [
        -1.0,
        -1.0,
        -1.0
      ],
      "type": "VEC3"
    },
    {
      "bufferView": 0,
      "byteOffset": 587844,
      "componentType": 5125,
      "count": 32280,
      "type": "SCALAR"
    },
    {
      "bufferView": 1,
      "byteOffset": 997056,
      "componentType": 5126,
      "count": 3090,
      "max": [
        117.60900115966797,
        -91.0,
        -38.084999084472656
      ],
      "min": [
        34.04399871826172,
        -200.67999267578125,
        -39.86000061035156
      ],
      "type": "VEC3"
    },
    {
      "bufferView": 1,
      "byteOffset": 1034136,
      "componentType": 5126,
      "count": 3090,
      "max": [
        1.0,
        1.0,
        1.0
      ],
      "min": [
        -1.0,
        -1.0,
        -1.0
      ],
      "type": "VEC3"
    },
    {
      "bufferView": 0,
      "byteOffset": 716964,
      "componentType": 5125,
      "count": 9012,
      "type": "SCALAR"
    }
  ],
  "asset": {
    "extras": {
      "author": "Clive (https://sketchfab.com/sdcliveng)",
      "license": "CC-BY-4.0 (http://creativecommons.org/licenses/by/4.0/)",
      "source": "https://sketchfab.com/3d-models/neon-arts-427ab2116f3640158a82b784daa5741c",
      "title": "Neon Arts"
    },
    "generator": "Sketchfab-17.8.0",
    "version": "2.0"
  },
  "bufferViews": [
    {
      "buffer": 0,
      "byteLength": 753012,
      "name": "floatBufferViews",
      "target": 34963
    },
    {
      "buffer": 0,
      "byteLength": 1071216,
      "byteOffset": 753012,
      "byteStride": 12,
      "name": "floatBufferViews",
      "target": 34962
    }
  ],
  "buffers": [
    {
      "byteLength": 1824228,
      "uri": "scene.bin"
    }
  ],
  "materials": [
    {
      "doubleSided": true,
      "name": "color_10988977",
      "pbrMetallicRoughness": {
        "metallicFactor": 0.0,
        "roughnessFactor": 0.6
      }
    },
    {
      "doubleSided": true,
      "name": "color_11909273",
      "pbrMetallicRoughness": {
        "metallicFactor": 0.0,
        "roughnessFactor": 0.6
      }
    },
    {
      "doubleSided": true,
      "name": "color_1206582",
      "pbrMetallicRoughness": {
        "metallicFactor": 0.0,
        "roughnessFactor": 0.6
      }
    },
    {
      "doubleSided": true,
      "name": "color_14541540",
      "pbrMetallicRoughness": {
        "metallicFactor": 0.0,
        "roughnessFactor": 0.6
      }
    },
    {
      "doubleSided": true,
      "name": "color_16448250",
      "pbrMetallicRoughness": {
        "metallicFactor": 0.0,
        "roughnessFactor": 0.6
      }
    },
    {
      "doubleSided": true,
      "name": "color_16768282",
      "pbrMetallicRoughness": {
        "metallicFactor": 0.0,
        "roughnessFactor": 0.6
      }
    },
    {
      "doubleSided": true,
      "name": "color_1855578",
      "pbrMetallicRoughness": {
        "metallicFactor": 0.0,
        "roughnessFactor": 0.6
      }
    }
  ],
  "meshes": [
    {
      "name": "Object_0",
      "primitives": [
        {
          "attributes": {
            "NORMAL": 1,
            "POSITION": 0
          },
          "indices": 2,
          "material": 0,
          "mode": 4
        }
      ]
    },
    {
      "name": "Object_1",
      "primitives": [
        {
          "attributes": {
            "NORMAL": 4,
            "POSITION": 3
          },
          "indices": 5,
          "material": 1,
          "mode": 4
        }
      ]
    },
    {
      "name": "Object_2",
      "primitives": [
        {
          "attributes": {
            "NORMAL": 7,
            "POSITION": 6
          },
          "indices": 8,
          "material": 2,
          "mode": 4
        }
      ]
    },
    {
      "name": "Object_3",
      "primitives": [
        {
          "attributes": {
            "NORMAL": 10,
            "POSITION": 9
          },
          "indices": 11,
          "material": 3,
          "mode": 4
        }
      ]
    },
    {
      "name": "Object_4",
      "primitives": [
        {
          "attributes": {
            "NORMAL": 13,
            "POSITION": 12
          },
          "indices": 14,
          "material": 4,
          "mode": 4
        }
      ]
    },
    {
      "name": "Object_5",
      "primitives": [
        {
          "attributes": {
            "NORMAL": 16,
            "POSITION": 15
          },
          "indices": 17,
          "material": 5,
          "mode": 4
        }
      ]
    },
    {
      "name": "Object_6",
      "primitives": [
        {
          "attributes": {
            "NORMAL": 19,
            "POSITION": 18
          },
          "indices": 20,
          "material": 6,
          "mode": 4
        }
      ]
    }
  ],
  "nodes": [
    {
      "children": [
        1
      ],
      "matrix": [
        1.0,
        2.8327693431939995e-16,
        -2.2204460492503123e-16,
        0.0,
        2.832769343193999e-16,
        -1.0,
        -4.440892098500626e-16,
        0.0,
        -2.220446049250313e-16,
        4.440892098500626e-16,
        -1.0,
        0.0,
        0.0,
        0.0,
        0.0,
        1.0
      ],
      "name": "Sketchfab_model"
    },
    {
      "children": [
        2,
        3,
        4,
        5,
        6,
        7,
        8
      ],
      "name": "tinker.obj.cleaner.materialmerger.gles"
    },
    {
      "mesh": 0,
      "name": "Object_2"
    },
    {
      "mesh": 1,
      "name": "Object_3"
    },
    {
      "mesh": 2,
      "name": "Object_4"
    },
    {
      "mesh": 3,
      "name": "Object_5"
    },
    {
      "mesh": 4,
      "name": "Object_6"
    },
    {
      "mesh": 5,
      "name": "Object_7"
    },
    {
      "mesh": 6,
      "name": "Object_8"
    }
  ],
  "scene": 0,
  "scenes": [
    {
      "name": "Sketchfab_Scene",
      "nodes": [
        0
      ]
    }
  ]
}
