{
    "asset": {
        "copyright": "2025 (c) Adobe Inc.",
        "generator": "Adobe Substance 3D Stager - cfd5f8abf16eac3560f90b27a1db259d32723931",
        "version": "2.0"
    },
    "accessors": [
        {
            "bufferView": 0,
            "componentType": 5126,
            "count": 5428,
            "type": "VEC3",
            "max": [
                154.0,
                -0.0,
                0.0
            ],
            "min": [
                0.0,
                -260.0,
                -112.0
            ]
        },
        {
            "bufferView": 1,
            "componentType": 5126,
            "count": 5428,
            "type": "VEC3"
        },
        {
            "bufferView": 2,
            "componentType": 5126,
            "count": 5428,
            "type": "VEC2"
        },
        {
            "bufferView": 3,
            "componentType": 5125,
            "count": 17724,
            "type": "SCALAR",
            "max": [
                5427.0
            ],
            "min": [
                0.0
            ]
        },
        {
            "bufferView": 4,
            "componentType": 5126,
            "count": 21952,
            "type": "VEC3",
            "max": [
                97.0,
                -0.0,
                -55.064998626708987
            ],
            "min": [
                35.52000045776367,
                -176.11399841308595,
                -91.0
            ]
        },
        {
            "bufferView": 5,
            "componentType": 5126,
            "count": 21952,
            "type": "VEC3"
        },
        {
            "bufferView": 6,
            "componentType": 5126,
            "count": 21952,
            "type": "VEC2"
        },
        {
            "bufferView": 7,
            "componentType": 5125,
            "count": 116352,
            "type": "SCALAR",
            "max": [
                21951.0
            ],
            "min": [
                0.0
            ]
        },
        {
            "bufferView": 8,
            "componentType": 5126,
            "count": 522,
            "type": "VEC3",
            "max": [
                154.0,
                -90.0,
                1.0
            ],
            "min": [
                10.0,
                -202.0,
                -37.0
            ]
        },
        {
            "bufferView": 9,
            "componentType": 5126,
            "count": 522,
            "type": "VEC3"
        },
        {
            "bufferView": 10,
            "componentType": 5126,
            "count": 522,
            "type": "VEC2"
        },
        {
            "bufferView": 11,
            "componentType": 5125,
            "count": 1086,
            "type": "SCALAR",
            "max": [
                521.0
            ],
            "min": [
                0.0
            ]
        },
        {
            "bufferView": 12,
            "componentType": 5126,
            "count": 498,
            "type": "VEC3",
            "max": [
                153.1999969482422,
                -78.0,
                -182.0
            ],
            "min": [
                131.0,
                -169.39999389648438,
                -231.0
            ]
        },
        {
            "bufferView": 13,
            "componentType": 5126,
            "count": 498,
            "type": "VEC3"
        },
        {
            "bufferView": 14,
            "componentType": 5126,
            "count": 498,
            "type": "VEC2"
        },
        {
            "bufferView": 15,
            "componentType": 5125,
            "count": 1062,
            "type": "SCALAR",
            "max": [
                497.0
            ],
            "min": [
                0.0
            ]
        },
        {
            "bufferView": 16,
            "componentType": 5126,
            "count": 4426,
            "type": "VEC3",
            "max": [
                182.0,
                -0.0,
                211.0
            ],
            "min": [
                -32.0,
                -260.0,
                -271.0
            ]
        },
        {
            "bufferView": 17,
            "componentType": 5126,
            "count": 4426,
            "type": "VEC3"
        },
        {
            "bufferView": 18,
            "componentType": 5126,
            "count": 4426,
            "type": "VEC2"
        },
        {
            "bufferView": 19,
            "componentType": 5125,
            "count": 10671,
            "type": "SCALAR",
            "max": [
                4425.0
            ],
            "min": [
                0.0
            ]
        },
        {
            "bufferView": 20,
            "componentType": 5126,
            "count": 11209,
            "type": "VEC3",
            "max": [
                153.0,
                -90.0,
                121.19999694824219
            ],
            "min": [
                0.0,
                -235.43698120117188,
                4.8520002365112309
            ]
        },
        {
            "bufferView": 21,
            "componentType": 5126,
            "count": 11209,
            "type": "VEC3"
        },
        {
            "bufferView": 22,
            "componentType": 5126,
            "count": 11209,
            "type": "VEC2"
        },
        {
            "bufferView": 23,
            "componentType": 5125,
            "count": 32280,
            "type": "SCALAR",
            "max": [
                11208.0
            ],
            "min": [
                0.0
            ]
        },
        {
            "bufferView": 24,
            "componentType": 5126,
            "count": 3092,
            "type": "VEC3",
            "max": [
                117.60900115966797,
                0.0,
                0.0
            ],
            "min": [
                0.0,
                -200.67999267578126,
                -39.86000061035156
            ]
        },
        {
            "bufferView": 25,
            "componentType": 5126,
            "count": 3092,
            "type": "VEC3"
        },
        {
            "bufferView": 26,
            "componentType": 5126,
            "count": 3092,
            "type": "VEC2"
        },
        {
            "bufferView": 27,
            "componentType": 5125,
            "count": 8988,
            "type": "SCALAR",
            "max": [
                3091.0
            ],
            "min": [
                0.0
            ]
        }
    ],
    "bufferViews": [
        {
            "buffer": 0,
            "byteOffset": 0,
            "byteLength": 65136,
            "target": 34962
        },
        {
            "buffer": 0,
            "byteOffset": 65136,
            "byteLength": 65136,
            "target": 34962
        },
        {
            "buffer": 0,
            "byteOffset": 130272,
            "byteLength": 43424,
            "target": 34962
        },
        {
            "buffer": 0,
            "byteOffset": 173696,
            "byteLength": 70896,
            "target": 34963
        },
        {
            "buffer": 0,
            "byteOffset": 244592,
            "byteLength": 263424,
            "target": 34962
        },
        {
            "buffer": 0,
            "byteOffset": 508016,
            "byteLength": 263424,
            "target": 34962
        },
        {
            "buffer": 0,
            "byteOffset": 771440,
            "byteLength": 175616,
            "target": 34962
        },
        {
            "buffer": 0,
            "byteOffset": 947056,
            "byteLength": 465408,
            "target": 34963
        },
        {
            "buffer": 0,
            "byteOffset": 1412464,
            "byteLength": 6264,
            "target": 34962
        },
        {
            "buffer": 0,
            "byteOffset": 1418728,
            "byteLength": 6264,
            "target": 34962
        },
        {
            "buffer": 0,
            "byteOffset": 1424992,
            "byteLength": 4176,
            "target": 34962
        },
        {
            "buffer": 0,
            "byteOffset": 1429168,
            "byteLength": 4344,
            "target": 34963
        },
        {
            "buffer": 0,
            "byteOffset": 1433512,
            "byteLength": 5976,
            "target": 34962
        },
        {
            "buffer": 0,
            "byteOffset": 1439488,
            "byteLength": 5976,
            "target": 34962
        },
        {
            "buffer": 0,
            "byteOffset": 1445464,
            "byteLength": 3984,
            "target": 34962
        },
        {
            "buffer": 0,
            "byteOffset": 1449448,
            "byteLength": 4248,
            "target": 34963
        },
        {
            "buffer": 0,
            "byteOffset": 1453696,
            "byteLength": 53112,
            "target": 34962
        },
        {
            "buffer": 0,
            "byteOffset": 1506808,
            "byteLength": 53112,
            "target": 34962
        },
        {
            "buffer": 0,
            "byteOffset": 1559920,
            "byteLength": 35408,
            "target": 34962
        },
        {
            "buffer": 0,
            "byteOffset": 1595328,
            "byteLength": 42684,
            "target": 34963
        },
        {
            "buffer": 0,
            "byteOffset": 1638012,
            "byteLength": 134508,
            "target": 34962
        },
        {
            "buffer": 0,
            "byteOffset": 1772520,
            "byteLength": 134508,
            "target": 34962
        },
        {
            "buffer": 0,
            "byteOffset": 1907028,
            "byteLength": 89672,
            "target": 34962
        },
        {
            "buffer": 0,
            "byteOffset": 1996700,
            "byteLength": 129120,
            "target": 34963
        },
        {
            "buffer": 0,
            "byteOffset": 2125820,
            "byteLength": 37104,
            "target": 34962
        },
        {
            "buffer": 0,
            "byteOffset": 2162924,
            "byteLength": 37104,
            "target": 34962
        },
        {
            "buffer": 0,
            "byteOffset": 2200028,
            "byteLength": 24736,
            "target": 34962
        },
        {
            "buffer": 0,
            "byteOffset": 2224764,
            "byteLength": 35952,
            "target": 34963
        }
    ],
    "buffers": [
        {
            "byteLength": 2260716,
            "uri": "text_binary.bin"
        }
    ],
    "images": [
        {
            "name": "base_color_image_texture",
            "uri": "text_images/base_color_image_texture.jpg",
            "mimeType": "image/jpeg"
        },
        {
            "name": "ambient_occlusion_image_texture_sampler",
            "uri": "text_images/ambient_occlusion_image_texture_sampler.png",
            "mimeType": "image/png"
        },
        {
            "name": "normal_image_texture",
            "uri": "text_images/normal_image_texture.png",
            "mimeType": "image/png"
        }
    ],
    "materials": [
        {
            "pbrMetallicRoughness": {
                "baseColorTexture": {
                    "index": 0
                },
                "metallicFactor": 0.0,
                "metallicRoughnessTexture": {
                    "index": 1
                }
            },
            "normalTexture": {
                "index": 2
            },
            "occlusionTexture": {
                "index": 1
            },
            "name": "Damaged Smooth Cellular Concrete_material3",
            "doubleSided": true
        }
    ],
    "meshes": [
        {
            "name": "Object_2_n3d",
            "primitives": [
                {
                    "attributes": {
                        "TEXCOORD_0": 2,
                        "NORMAL": 1,
                        "POSITION": 0
                    },
                    "indices": 3,
                    "material": 0
                }
            ]
        },
        {
            "name": "Object_3_n3d",
            "primitives": [
                {
                    "attributes": {
                        "POSITION": 4,
                        "NORMAL": 5,
                        "TEXCOORD_0": 6
                    },
                    "indices": 7,
                    "material": 0
                }
            ]
        },
        {
            "name": "Object_4_n3d",
            "primitives": [
                {
                    "attributes": {
                        "TEXCOORD_0": 10,
                        "NORMAL": 9,
                        "POSITION": 8
                    },
                    "indices": 11,
                    "material": 0
                }
            ]
        },
        {
            "name": "Object_5_n3d",
            "primitives": [
                {
                    "attributes": {
                        "TEXCOORD_0": 14,
                        "NORMAL": 13,
                        "POSITION": 12
                    },
                    "indices": 15,
                    "material": 0
                }
            ]
        },
        {
            "name": "Object_6_n3d",
            "primitives": [
                {
                    "attributes": {
                        "POSITION": 16,
                        "NORMAL": 17,
                        "TEXCOORD_0": 18
                    },
                    "indices": 19,
                    "material": 0
                }
            ]
        },
        {
            "name": "Object_7_n3d",
            "primitives": [
                {
                    "attributes": {
                        "POSITION": 20,
                        "NORMAL": 21,
                        "TEXCOORD_0": 22
                    },
                    "indices": 23,
                    "material": 0
                }
            ]
        },
        {
            "name": "Object_8_n3d",
            "primitives": [
                {
                    "attributes": {
                        "POSITION": 24,
                        "NORMAL": 25,
                        "TEXCOORD_0": 26
                    },
                    "indices": 27,
                    "material": 0
                }
            ]
        }
    ],
    "nodes": [
        {
            "name": "working_cam_n3d"
        },
        {
            "children": [
                2
            ],
            "name": "scene2_n3d"
        },
        {
            "children": [
                3
            ],
            "rotation": [
                1.0,
                0.0,
                0.0,
                0.0
            ],
            "name": "Sketchfab_model_n3d"
        },
        {
            "children": [
                4,
                5,
                6,
                7,
                8,
                9,
                10
            ],
            "name": "tinker%2Eobj%2Ecleaner%2Ematerialmerger%2Egles_n3d"
        },
        {
            "mesh": 0,
            "name": "Object_2_n3d"
        },
        {
            "mesh": 1,
            "name": "Object_3_n3d"
        },
        {
            "mesh": 2,
            "name": "Object_4_n3d"
        },
        {
            "mesh": 3,
            "name": "Object_5_n3d"
        },
        {
            "mesh": 4,
            "name": "Object_6_n3d"
        },
        {
            "mesh": 5,
            "name": "Object_7_n3d"
        },
        {
            "mesh": 6,
            "name": "Object_8_n3d"
        }
    ],
    "samplers": [
        {}
    ],
    "scenes": [
        {
            "nodes": [
                1
            ],
            "name": "scene"
        }
    ],
    "textures": [
        {
            "name": "base_color_image_texture",
            "sampler": 0,
            "source": 0
        },
        {
            "name": "ambient_occlusion_image_texture_sampler",
            "sampler": 0,
            "source": 1
        },
        {
            "name": "normal_image_texture",
            "sampler": 0,
            "source": 2
        }
    ],
    "scene": 0
}