<svg width="696" height="834" viewBox="0 0 696 834" fill="none" xmlns="http://www.w3.org/2000/svg">
<path d="M695.5 667.895V833.5H522.754V667.895H695.5ZM521.754 667.895V833.5H521.738V667.895H521.754ZM520.738 667.895V833.5H349.008V667.895H520.738ZM348.008 667.895V833.5H347.992V667.895H348.008ZM346.992 667.895V833.5H175.262V667.895H346.992ZM174.262 667.895V833.5H174.246V667.895H174.262ZM173.246 667.895V833.5H0.5V667.895H173.246ZM695.5 501.29V665.921H522.754V501.29H695.5ZM521.754 501.29V665.921H521.738V501.29H521.754ZM520.738 501.29V665.921H349.008V501.29H520.738ZM348.008 501.29V665.921H347.992V501.29H348.008ZM346.992 501.29V665.921H175.262V501.29H346.992ZM174.262 501.29V665.921H174.246V501.29H174.262ZM173.246 501.29V665.921H0.5V501.29H173.246ZM695.5 334.685V499.315H522.754V334.685H695.5ZM521.754 334.685V499.315H521.738V334.685H521.754ZM520.738 334.685V499.315H349.008V334.685H520.738ZM348.008 334.685V499.315H347.992V334.685H348.008ZM346.992 334.685V499.315H175.262V334.685H346.992ZM174.262 334.685V499.315H174.246V334.685H174.262ZM173.246 334.685V499.315H0.5V334.685H173.246ZM695.5 168.079V332.71H522.754V168.079H695.5ZM521.754 168.079V332.71H521.738V168.079H521.754ZM520.738 168.079V332.71H349.008V168.079H520.738ZM348.008 168.079V332.71H347.992V168.079H348.008ZM346.992 168.079V332.71H175.262V168.079H346.992ZM174.262 168.079V332.71H174.246V168.079H174.262ZM173.246 168.079V332.71H0.5V168.079H173.246ZM695.5 0.5V166.105H522.754V0.5H695.5ZM521.754 0.5V166.105H521.738V0.5H521.754ZM520.738 0.5V166.105H349.008V0.5H520.738ZM348.008 0.5V166.105H347.992V0.5H348.008ZM346.992 0.5V166.105H175.262V0.5H346.992ZM174.262 0.5V166.105H174.246V0.5H174.262ZM173.246 0.5V166.105H0.5V0.5H173.246Z" stroke="#006F41"/>
</svg>
