<svg width="1057" height="832" viewBox="0 0 1057 832" fill="none" xmlns="http://www.w3.org/2000/svg">
<path d="M1056.32 831.5H792.983L766.698 666.29L1003.44 665.323L1056.32 831.5ZM765.687 666.294L791.972 831.5H529.386V666.294H765.687ZM527.614 666.294V831.5H264.644L291.054 666.294H527.614ZM290.041 666.294L263.631 831.5H0.685547L53.8145 666.294H290.041ZM316.592 500.085L290.51 664.323L54.1338 665.291L106.911 499.118L316.592 500.085ZM1003.12 664.322H766.232L740.291 500.085L950.625 499.118L1003.12 664.322ZM739.279 500.089L765.22 664.322H529.386V500.089H739.279ZM527.614 500.089V664.322H291.522L317.604 500.089H527.614ZM950.309 498.117H739.826L713.816 333.879L897.679 332.912L950.309 498.117ZM712.805 333.883L738.814 498.117H529.386V333.883H712.805ZM527.614 333.883V498.117H318.071L344.126 333.883H527.614ZM343.113 333.873L317.059 498.117H107.229L159.955 331.458L343.113 333.873ZM897.359 331.911H713.351L687.288 167.673L844.618 166.708L897.359 331.911ZM686.275 167.678L712.338 331.911H529.386V167.678H686.275ZM527.614 167.678V331.911H344.59L370.341 167.678H527.614ZM369.328 167.673L343.577 331.908L160.272 330.458L212.381 166.708L369.328 167.673ZM792.19 0.5L844.302 165.706H686.827L661.305 0.5H792.19ZM659.524 0.5L685.809 165.706H529.386V0.5H659.524ZM527.614 0.5V165.706H370.81L397.476 0.5H527.614ZM395.693 0.5L369.79 165.706H212.698L264.81 0.5H395.693Z" stroke="#006F41"/>
</svg>
