<svg width="1056" height="314" viewBox="0 0 1056 314" fill="none" xmlns="http://www.w3.org/2000/svg">
<path d="M289.599 251.773L263.476 313.5H1.08301L53.6309 251.773H289.599ZM527.115 251.773V313.5H264.562L290.685 251.773H527.115ZM1054.92 313.5H792.14L766.141 251.771L1002.62 251.406L1054.92 313.5ZM765.057 251.773L791.055 313.5H528.885V251.773H765.057ZM316.125 189.045L290.329 250.406L54.4736 250.771L106.678 188.68L316.125 189.045ZM1001.78 250.406H765.413L739.756 189.045L949.858 188.68L1001.78 250.406ZM738.674 189.047L764.329 250.406H528.885V189.047H738.674ZM527.115 189.047V250.406H291.415L317.209 189.047H527.115ZM949.017 187.68H739.032L713.308 126.318L896.962 125.953L949.017 187.68ZM712.225 126.32L737.948 187.68H528.885V126.32H712.225ZM527.115 126.32V187.68H317.938L343.705 126.32H527.115ZM251.481 125.861L342.622 126.315L316.854 187.68H107.517L159.671 125.404L251.481 125.861ZM896.117 124.953H712.582L686.805 63.5908L843.951 63.2266L896.117 124.953ZM685.722 63.5938L711.497 124.953H528.885V63.5938H685.722ZM527.115 63.5938V124.953H344.429L369.897 63.5938H527.115ZM368.814 63.5908L343.346 124.952L160.512 124.406L212.048 63.2266L368.814 63.5908ZM791.574 0.5L843.115 62.2266H686.085L660.842 0.5H791.574ZM658.994 0.5L684.992 62.2266H528.885V0.5H658.994ZM527.115 0.5V62.2266H370.63L397.004 0.5H527.115ZM395.155 0.5L369.534 62.2266H212.885L264.426 0.5H395.155Z" stroke="#006F41"/>
</svg>
