<svg width="1057" height="314" viewBox="0 0 1057 314" fill="none" xmlns="http://www.w3.org/2000/svg">
<path d="M252.182 218.342C355.664 234.582 416.089 239.769 527.613 241.403C527.612 241.686 527.611 242.086 527.609 242.597C527.606 243.695 527.601 245.305 527.595 247.347C527.583 251.43 527.569 257.243 527.56 264.164C527.541 277.874 527.54 295.931 527.613 313.494C386.625 312.186 319.98 303.271 210.076 281.995L252.182 218.342ZM845.767 282.461C728.691 305.233 658.877 311.838 528.616 313.493C528.689 295.93 528.69 277.874 528.672 264.164C528.662 257.243 528.648 251.43 528.637 247.347C528.631 245.305 528.626 243.695 528.622 242.597C528.62 242.087 528.618 241.687 528.617 241.404C642.264 239.896 702.807 235.166 803.281 218.646L845.767 282.461ZM1056.13 201.772C996.921 240.228 949.408 257.435 846.822 282.24L804.35 218.445C892.617 201.003 937.158 188.738 1002.31 160.53L1056.13 201.772ZM54.1768 160.759C125.764 190.157 169.354 202.311 251.111 218.146L209.02 281.779C157.807 270.229 129.688 262.33 81.7393 243.942C44.555 228.237 27.2149 218.698 0.862305 201.083L54.1768 160.759ZM802.676 217.731C702.527 234.183 642.046 238.899 528.615 240.404L528.725 180.238C626.002 179.094 678.72 175.956 766.736 163.474L802.676 217.731ZM288.727 163.239C383.991 176.018 436.426 179.714 527.726 180.241L527.615 240.403C416.307 238.772 355.943 233.601 252.789 217.425L288.727 163.239ZM1001.4 159.835C936.513 187.889 892.012 200.115 803.751 217.545L767.82 163.301C843.94 150.528 884.506 141.547 949.59 120.521L1001.4 159.835ZM107.178 120.521C175.784 142.69 215.611 151.648 287.636 163.073L251.708 217.244C169.949 201.42 126.411 189.312 55.1016 160.058L107.178 120.521ZM323.347 111.792C402.164 120.536 446.959 123.619 527.727 124.095V179.241C436.63 178.715 384.261 175.033 289.347 162.312L323.347 111.792ZM766.121 162.551C678.446 174.969 625.788 178.096 528.727 179.238V124.094C612.393 123.483 657.206 120.894 732.498 112.026L766.121 162.551ZM948.615 119.784C883.855 140.677 843.324 149.625 767.216 162.388L733.603 111.879C799.558 102.746 835.602 96.032 896.742 80.5205L948.615 119.784ZM160.119 80.1729C220.081 96.1221 256.023 102.761 322.236 111.648L288.245 162.158C216.211 150.742 176.436 141.823 108.147 119.782L160.119 80.1729ZM355.663 62.9053C424.693 69.1063 462.567 71.0524 527.616 71.4893L527.725 123.095C447.177 122.62 402.436 119.55 323.969 110.854L355.663 62.9053ZM731.877 111.092C656.931 119.906 612.168 122.484 528.724 123.094L528.616 71.4863C596.23 70.6401 633.955 69.0581 699.8 62.9062L731.877 111.092ZM895.719 79.748C834.943 95.1463 798.935 101.831 732.987 110.955L700.924 62.79C759.611 56.5438 791.17 51.7269 843.788 40.5244L895.719 79.748ZM212.445 40.5225C265.111 51.1943 296.647 55.9276 354.546 62.7812L322.856 110.724C256.644 101.845 220.738 95.2357 161.131 79.4053L212.445 40.5225ZM386.821 15.8818C444.508 20.1628 475.389 21.312 527.615 21.4473V70.4893C462.77 70.0537 424.952 68.1174 356.29 61.957L386.821 15.8818ZM699.171 61.96C633.692 68.067 596.017 69.6417 528.615 70.4854V21.4443C584.525 21.0472 615.282 19.7431 668.64 15.8818L699.171 61.96ZM842.74 39.7246C790.509 50.8244 758.977 55.6139 700.3 61.8506L669.774 15.7852C721.551 11.2239 748.283 7.83558 791.465 0.52832L842.74 39.7246ZM264.769 0.526367C311.935 7.96447 338.574 11.3032 385.688 15.7803L355.163 61.8477C297.282 55.0018 265.771 50.2894 213.502 39.7158L264.769 0.526367Z" stroke="#006F41"/>
</svg>
