<svg width="661" height="240" viewBox="0 0 661 240" fill="none" xmlns="http://www.w3.org/2000/svg">
<path d="M158.781 164.959C223.335 177.344 260.169 183.365 329.758 184.627C329.757 184.832 329.757 185.098 329.756 185.424C329.753 186.264 329.75 187.494 329.746 189.055C329.739 192.176 329.73 196.619 329.725 201.909C329.713 212.357 329.713 226.107 329.758 239.493C241.814 238.487 200.162 231.683 131.602 215.466L158.781 164.959ZM528.673 215.824C455.641 233.178 412.016 238.222 330.761 239.491C330.806 226.105 330.807 212.356 330.795 201.909C330.789 196.619 330.78 192.176 330.772 189.055C330.769 187.494 330.766 186.264 330.764 185.424C330.763 185.099 330.761 184.833 330.761 184.628C401.663 183.473 439.524 179.856 502.222 167.263L528.673 215.824ZM660.234 154.215C623.306 183.513 593.64 196.652 529.67 215.565L503.235 167.033C558.263 153.737 586.12 144.359 626.761 122.866L660.234 154.215ZM33.918 123.039C78.5841 145.437 106.805 152.683 157.766 164.735L130.602 215.215C98.6985 206.416 81.1356 200.381 51.2227 186.36H51.2236C28.0208 174.383 17.186 167.104 0.761719 153.69L33.918 123.039ZM180.673 124.909C240.096 134.647 272.885 137.472 329.828 137.88L329.76 183.627C260.374 182.368 223.609 176.375 159.282 164.037L180.673 124.909ZM501.723 166.343C439.278 178.872 401.488 182.474 330.76 183.627L330.828 137.877C391.494 137.001 424.458 134.601 479.364 125.09L501.723 166.343ZM625.985 122.145C585.545 143.504 557.752 152.841 502.741 166.124L480.394 124.89C527.832 115.156 553.197 108.29 593.779 92.2734L625.985 122.145ZM67.0742 92.2734C109.847 109.159 134.752 116.01 179.637 124.718L158.259 163.824C107.279 151.769 79.1439 144.563 34.7021 122.312L67.0742 92.2734ZM202.325 85.5811C251.468 92.2413 279.478 94.597 329.829 94.9648V136.88C273.055 136.473 240.335 133.662 181.183 123.979L202.325 85.5811ZM478.86 124.161C424.222 133.612 391.324 136.003 330.829 136.877V94.9639C382.984 94.4941 411.005 92.5163 457.953 85.7627L478.86 124.161ZM592.965 91.5195C552.626 107.417 527.31 114.25 479.896 123.972L458.999 85.5938C500.082 78.6361 522.617 73.5035 560.724 61.6914L592.965 91.5195ZM100.189 61.4277C137.56 73.5719 160.033 78.6488 201.272 85.4189L180.141 123.798C135.267 115.101 110.422 108.291 67.8857 91.5186L100.189 61.4277ZM222.537 48.2129C265.553 52.9332 289.232 54.4212 329.76 54.7578L329.828 93.9648C279.659 93.5981 251.707 91.2576 202.836 84.6416L222.537 48.2129ZM457.442 84.8242C410.767 91.5278 382.802 93.4956 330.828 93.9639L330.76 54.7539C372.882 54.1071 396.467 52.896 437.501 48.2139L457.442 84.8242ZM559.873 60.9072C522.046 72.6147 499.555 77.7184 458.494 84.665L438.567 48.0801C475.095 43.3241 494.824 39.6429 527.603 31.1172L559.873 60.9072ZM132.919 31.1143C165.726 39.2364 185.439 42.8535 221.477 48.0703L201.781 84.4883C160.556 77.7283 138.131 72.6826 101.03 60.6475L132.919 31.1143ZM242.023 12.2686C277.943 15.5242 297.248 16.4028 329.76 16.5088V53.7578C289.401 53.4225 265.778 51.9433 223.052 47.2617L242.023 12.2686ZM436.987 47.2656C396.244 51.905 372.71 53.1096 330.76 53.7539V16.5059C365.562 16.2008 384.788 15.2052 418.014 12.2686L436.987 47.2656ZM526.735 30.3086C494.257 38.7382 474.564 42.3929 438.056 47.1387L419.091 12.1582C451.286 8.6882 467.994 6.09825 494.875 0.541016L526.735 30.3086ZM165.646 0.539062C195.003 6.1958 211.653 8.74573 240.95 12.1514L221.984 47.1338C185.973 41.9259 166.293 38.3296 133.793 30.2998L165.646 0.539062Z" stroke="#006F41"/>
</svg>
