<svg width="531" height="553" viewBox="0 0 531 553" fill="none" xmlns="http://www.w3.org/2000/svg">
<rect x="96.7148" y="22.8745" width="336.295" height="303.388" fill="url(#paint0_linear_474_556)" stroke="black" stroke-width="0.802612"/>
<path d="M132.825 360.373C156.699 364.976 170.086 367.023 194.025 369.797L178.387 398.641C149.033 394.4 133.184 391.499 106.569 384.905L132.825 360.373Z" fill="#4065C5"/>
<path d="M194.025 369.797C223.159 372.442 238.667 373.145 265.071 373.224V403.925C232.229 403.66 213.211 402.467 178.387 398.641L194.025 369.797Z" fill="url(#paint1_linear_474_556)"/>
<path d="M265.071 373.224C293.336 372.983 308.785 372.183 335.73 369.797L351.368 398.641C318.154 402.438 299.209 403.406 265.071 403.925V373.224Z" fill="url(#paint2_linear_474_556)"/>
<path d="M335.73 369.797C362.031 366.972 375.47 364.894 397.316 360.373L423.572 384.905C396.982 391.827 381.123 394.779 351.368 398.641L335.73 369.797Z" fill="url(#paint3_linear_474_556)"/>
<path d="M106.569 384.905C133.184 391.499 149.033 394.4 178.387 398.641L162.17 428.628C128.645 423.137 110.588 419.068 80.3127 409.221L106.569 384.905Z" fill="#4065C5"/>
<path d="M178.387 398.641C213.211 402.467 232.229 403.66 265.071 403.925L265.126 436.196C224.388 435.909 201.897 434.017 162.17 428.628L178.387 398.641Z" fill="url(#paint4_linear_474_556)"/>
<path d="M265.071 403.925C299.209 403.406 318.154 402.438 351.368 398.641L367.778 428.771C329.83 434.237 307.329 435.824 265.126 436.196L265.071 403.925Z" fill="url(#paint5_linear_474_556)"/>
<path d="M351.368 398.641C381.123 394.779 396.982 391.827 423.572 384.905L450.146 409.436C419.276 419.012 401.169 423.127 367.778 428.771L351.368 398.641Z" fill="url(#paint6_linear_474_556)"/>
<path d="M80.3127 409.221C110.588 419.068 128.645 423.137 162.17 428.628L144.794 460.185C108.367 453.134 88.3664 447.646 53.7469 433.968L80.3127 409.221Z" fill="#4065C5"/>
<path d="M162.17 428.628C201.897 434.017 224.388 435.909 265.126 436.196V470.64C219.108 470.323 192.785 468.057 144.794 460.185L162.17 428.628Z" fill="url(#paint7_linear_474_556)"/>
<path d="M265.126 436.196C307.329 435.824 329.83 434.237 367.778 428.771L384.96 460.328C340.627 468.019 314.159 469.94 265.126 470.64V436.196Z" fill="url(#paint8_linear_474_556)"/>
<path d="M367.778 428.771C401.169 423.127 419.276 419.012 450.146 409.436L476.663 433.968C443.83 446.939 423.452 452.442 384.96 460.328L367.778 428.771Z" fill="url(#paint9_linear_474_556)"/>
<path d="M53.7469 433.968C88.3664 447.646 108.367 453.134 144.794 460.185L127.226 492.322C85.9152 482.556 63.2541 476.77 27.1552 458.643L53.7469 433.968Z" fill="#4065C5"/>
<path d="M144.794 460.185C192.785 468.057 219.108 470.323 265.126 470.64L265.071 508.163C208.89 507.165 179.328 502.321 127.226 492.322L144.794 460.185Z" fill="url(#paint10_linear_474_556)"/>
<path d="M265.126 470.64C314.159 469.94 340.627 468.019 384.96 460.328L403.301 494.169C352.716 504.342 322.322 507.242 265.071 508.163L265.126 470.64Z" fill="url(#paint11_linear_474_556)"/>
<path d="M384.96 460.328C423.452 452.442 443.83 446.939 476.663 433.968L503.113 458.499C470.27 475.891 447.899 483.41 403.301 494.169L384.96 460.328Z" fill="url(#paint12_linear_474_556)"/>
<path d="M27.1552 458.643C63.2541 476.77 85.9152 482.556 127.226 492.322L105.024 533.58C79.2007 526.466 65.066 521.619 40.9286 510.305C22.1143 500.593 13.4064 494.717 0 483.746L27.1552 458.643Z" fill="#4065C5"/>
<path d="M127.226 492.322C179.328 502.321 208.89 507.165 265.071 508.163C265.071 508.163 265.146 531.257 265.071 553C193.957 552.206 160.486 546.714 105.024 533.58L127.226 492.322Z" fill="#4065C5"/>
<path d="M265.071 508.163C322.322 507.242 352.716 504.342 403.301 494.169L424.923 533.866C365.845 547.929 330.765 551.989 265.071 553C264.995 531.257 265.071 508.163 265.071 508.163Z" fill="#4065C5"/>
<path d="M403.301 494.169C447.899 483.41 470.27 475.891 503.113 458.499L530.527 484.174C500.601 507.985 476.715 518.567 424.923 533.866L403.301 494.169Z" fill="#4065C5"/>
<path d="M127.439 492.771C179.251 502.712 208.815 507.543 264.667 508.556C264.666 508.72 264.667 508.935 264.666 509.197C264.664 509.871 264.661 510.858 264.658 512.11C264.652 514.615 264.645 518.182 264.641 522.428C264.631 530.813 264.631 541.849 264.667 552.593C194.083 551.785 160.653 546.324 105.626 533.309L127.439 492.771ZM424.319 533.596C365.703 547.524 330.689 551.572 265.473 552.591C265.509 541.847 265.509 530.812 265.5 522.428C265.495 518.182 265.488 514.615 265.482 512.11C265.479 510.858 265.477 509.871 265.475 509.197C265.474 508.936 265.473 508.721 265.473 508.557C322.38 507.63 352.767 504.728 403.089 494.62L424.319 533.596ZM529.912 484.148C500.273 507.663 476.463 518.209 425.12 533.389L403.902 494.435C448.069 483.764 470.427 476.238 503.047 458.987L529.912 484.148ZM27.2236 459.125C63.0732 477.102 85.7228 482.918 126.625 492.592L104.822 533.107C79.2131 526.045 65.1169 521.199 41.1025 509.943C22.4863 500.333 13.7917 494.49 0.611328 483.726L27.2236 459.125ZM402.688 493.882C352.57 503.938 322.239 506.829 265.472 507.754L265.526 471.034C314.218 470.331 340.676 468.405 384.744 460.771L402.688 493.882ZM145.01 460.626C192.704 468.442 219.02 470.71 264.724 471.037L264.669 507.753C208.979 506.743 179.471 501.934 127.842 492.031L145.01 460.626ZM502.423 458.407C469.965 475.551 447.658 483.045 403.506 493.706L385.57 460.611C423.645 452.799 444.003 447.288 476.575 434.433L502.423 458.407ZM53.834 434.433C88.1645 447.986 108.153 453.484 144.179 460.474L127.021 491.86C86.1037 482.185 63.5226 476.4 27.8535 458.542L53.834 434.433ZM162.389 429.061C201.831 434.407 224.312 436.297 264.725 436.593V470.234C219.157 469.908 192.896 467.652 145.42 459.88L162.389 429.061ZM384.339 460.026C340.486 467.612 314.081 469.53 265.527 470.231V436.593C307.388 436.216 329.877 434.627 367.559 429.207L384.339 460.026ZM475.921 433.828C443.545 446.588 423.226 452.071 385.17 459.874L368.397 429.071C401.372 423.487 419.458 419.367 450.043 409.887L475.921 433.828ZM80.4131 409.675C110.408 419.422 128.445 423.496 161.545 428.93L144.584 459.734C108.567 452.754 88.6268 447.289 54.4863 433.827L80.4131 409.675ZM178.61 399.068C213.136 402.857 232.141 404.051 264.669 404.321L264.724 435.791C224.457 435.497 202.023 433.617 162.798 428.307L178.61 399.068ZM367.148 428.454C329.687 433.834 307.242 435.414 265.526 435.79L265.472 404.319C299.28 403.8 318.209 402.827 351.145 399.069L367.148 428.454ZM449.361 409.258C419 418.654 400.948 422.751 367.992 428.326L352 398.962C381.317 395.145 397.152 392.189 423.46 385.347L449.361 409.258ZM106.684 385.345C133.015 391.863 148.836 394.769 177.76 398.956L161.952 428.185C128.864 422.759 110.865 418.71 81.0869 409.05L106.684 385.345ZM194.25 370.22C223.08 372.833 238.575 373.539 264.669 373.624V403.518C232.277 403.249 213.317 402.063 179.024 398.306L194.25 370.22ZM350.73 398.309C318.03 402.032 299.141 402.999 265.472 403.517V373.621C293.404 373.376 308.835 372.577 335.502 370.22L350.73 398.309ZM422.763 384.698C396.696 391.464 380.89 394.398 351.589 398.207L336.367 370.131C362.207 367.346 375.617 365.267 397.192 360.807L422.763 384.698ZM132.948 360.806C156.511 365.346 169.875 367.394 193.389 370.127L178.167 398.203C149.265 394.023 133.469 391.135 107.385 384.69L132.948 360.806Z" stroke="#006F41" stroke-width="0.802612"/>
<path d="M265.264 302.377C311.677 302.377 353.684 305.115 384.076 309.54C399.277 311.753 411.547 314.384 420.004 317.295C424.236 318.752 427.478 320.267 429.65 321.813C431.842 323.372 432.816 324.867 432.816 326.262C432.816 327.656 431.842 329.152 429.65 330.711C427.478 332.257 424.236 333.772 420.004 335.229C411.547 338.14 399.277 340.771 384.076 342.984C353.684 347.408 311.677 350.148 265.264 350.148C218.851 350.148 176.844 347.408 146.451 342.984C131.25 340.771 118.98 338.14 110.523 335.229C106.291 333.772 103.049 332.257 100.877 330.711C98.6852 329.152 97.7109 327.657 97.7109 326.262C97.711 324.867 98.6852 323.372 100.877 321.813C103.049 320.267 106.291 318.752 110.523 317.295C118.98 314.384 131.25 311.753 146.451 309.54C176.844 305.115 218.851 302.377 265.264 302.377Z" fill="#4065C5" stroke="#006F41" stroke-width="1.1889"/>
<path d="M265.264 0.594727C311.679 0.594731 353.69 3.01908 384.086 6.93652C399.288 8.89576 411.562 11.2255 420.023 13.8037C424.259 15.0942 427.504 16.4374 429.678 17.8066C431.887 19.1984 432.816 20.5043 432.816 21.6709C432.816 22.8374 431.887 24.1436 429.678 25.5352C427.504 26.9043 424.258 28.2467 420.023 29.5371C411.562 32.1153 399.288 34.4451 384.086 36.4043C353.69 40.3217 311.679 42.7471 265.264 42.7471C218.848 42.7471 176.838 40.3217 146.441 36.4043C131.239 34.445 118.965 32.1154 110.503 29.5371C106.268 28.2468 103.024 26.9043 100.85 25.5352C98.6401 24.1436 97.7111 22.8374 97.7109 21.6709C97.7109 20.5043 98.6398 19.1984 100.85 17.8066C103.024 16.4375 106.268 15.0941 110.503 13.8037C118.965 11.2254 131.239 8.89579 146.441 6.93652C176.838 3.01908 218.848 0.594727 265.264 0.594727Z" fill="#4065C5" stroke="#006F41" stroke-width="1.1889"/>
<line x1="97.3245" y1="326.663" x2="97.3245" y2="21.6705" stroke="black" stroke-width="1.1889"/>
<line x1="432.817" y1="327.098" x2="432.817" y2="22.1053" stroke="black" stroke-width="1.1889"/>
<path d="M358.485 271.62V317.552H312.367V271.62H358.485ZM311.528 271.62V317.552H265.684V271.62H311.528ZM264.845 271.62V317.552H219V271.62H264.845ZM218.161 271.62V317.552H172.043V271.62H218.161ZM358.485 225.123V270.783H312.367V225.123H358.485ZM311.528 225.123V270.783H265.684V225.123H311.528ZM264.845 225.123V270.783H219V225.123H264.845ZM218.161 225.123V270.783H172.043V225.123H218.161ZM358.485 178.626V224.285H312.367V178.626H358.485ZM311.528 178.626V224.285H265.684V178.626H311.528ZM264.845 178.626V224.285H219V178.626H264.845ZM218.161 178.626V224.285H172.043V178.626H218.161ZM358.485 132.129V177.788H312.367V132.129H358.485ZM311.528 132.129V177.788H265.684V132.129H311.528ZM264.845 132.129V177.788H219V132.129H264.845ZM218.161 132.129V177.788H172.043V132.129H218.161ZM358.485 85.3601V131.291H312.367V85.3601H358.485ZM311.528 85.3601V131.291H265.684V85.3601H311.528ZM264.845 85.3601V131.291H219V85.3601H264.845ZM218.161 85.3601V131.291H172.043V85.3601H218.161Z" stroke="#006F41" stroke-width="0.56593"/>
<defs>
<linearGradient id="paint0_linear_474_556" x1="264.862" y1="22.4731" x2="264.862" y2="326.663" gradientUnits="userSpaceOnUse">
<stop stop-color="#D0FF00"/>
<stop offset="1" stop-color="white"/>
</linearGradient>
<linearGradient id="paint1_linear_474_556" x1="265.263" y1="360.373" x2="265.263" y2="553" gradientUnits="userSpaceOnUse">
<stop stop-color="#D0FF00"/>
<stop offset="1" stop-color="white"/>
</linearGradient>
<linearGradient id="paint2_linear_474_556" x1="265.263" y1="360.373" x2="265.263" y2="553" gradientUnits="userSpaceOnUse">
<stop stop-color="#D0FF00"/>
<stop offset="1" stop-color="white"/>
</linearGradient>
<linearGradient id="paint3_linear_474_556" x1="265.263" y1="360.373" x2="265.263" y2="553" gradientUnits="userSpaceOnUse">
<stop stop-color="#D0FF00"/>
<stop offset="1" stop-color="white"/>
</linearGradient>
<linearGradient id="paint4_linear_474_556" x1="265.263" y1="360.373" x2="265.263" y2="553" gradientUnits="userSpaceOnUse">
<stop stop-color="#D0FF00"/>
<stop offset="1" stop-color="white"/>
</linearGradient>
<linearGradient id="paint5_linear_474_556" x1="265.263" y1="360.373" x2="265.263" y2="553" gradientUnits="userSpaceOnUse">
<stop stop-color="#D0FF00"/>
<stop offset="1" stop-color="white"/>
</linearGradient>
<linearGradient id="paint6_linear_474_556" x1="265.263" y1="360.373" x2="265.263" y2="553" gradientUnits="userSpaceOnUse">
<stop stop-color="#D0FF00"/>
<stop offset="1" stop-color="white"/>
</linearGradient>
<linearGradient id="paint7_linear_474_556" x1="265.263" y1="360.373" x2="265.263" y2="553" gradientUnits="userSpaceOnUse">
<stop stop-color="#D0FF00"/>
<stop offset="1" stop-color="white"/>
</linearGradient>
<linearGradient id="paint8_linear_474_556" x1="265.263" y1="360.373" x2="265.263" y2="553" gradientUnits="userSpaceOnUse">
<stop stop-color="#D0FF00"/>
<stop offset="1" stop-color="white"/>
</linearGradient>
<linearGradient id="paint9_linear_474_556" x1="265.263" y1="360.373" x2="265.263" y2="553" gradientUnits="userSpaceOnUse">
<stop stop-color="#D0FF00"/>
<stop offset="1" stop-color="white"/>
</linearGradient>
<linearGradient id="paint10_linear_474_556" x1="265.263" y1="360.373" x2="265.263" y2="553" gradientUnits="userSpaceOnUse">
<stop stop-color="#D0FF00"/>
<stop offset="1" stop-color="white"/>
</linearGradient>
<linearGradient id="paint11_linear_474_556" x1="265.263" y1="360.373" x2="265.263" y2="553" gradientUnits="userSpaceOnUse">
<stop stop-color="#D0FF00"/>
<stop offset="1" stop-color="white"/>
</linearGradient>
<linearGradient id="paint12_linear_474_556" x1="265.263" y1="360.373" x2="265.263" y2="553" gradientUnits="userSpaceOnUse">
<stop stop-color="#D0FF00"/>
<stop offset="1" stop-color="white"/>
</linearGradient>
</defs>
</svg>
