<svg width="562" height="575" viewBox="0 0 562 575" fill="none" xmlns="http://www.w3.org/2000/svg">
<path d="M167.155 299.165C213.075 299.165 254.636 301.875 284.706 306.253C299.745 308.442 311.885 311.046 320.252 313.926C324.439 315.367 327.647 316.865 329.796 318.394C331.964 319.937 332.929 321.417 332.929 322.797C332.929 324.176 331.964 325.655 329.796 327.198C327.647 328.727 324.439 330.226 320.252 331.668C311.885 334.548 299.745 337.151 284.706 339.341C254.636 343.718 213.075 346.428 167.155 346.428C121.235 346.428 79.6741 343.718 49.6045 339.341C34.5653 337.151 22.4256 334.548 14.0586 331.668C9.87142 330.226 6.66388 328.727 4.51465 327.198C2.34634 325.655 1.38186 324.176 1.38184 322.797C1.38184 321.417 2.34611 319.937 4.51465 318.394C6.66387 316.865 9.87151 315.367 14.0586 313.926C22.4256 311.046 34.5653 308.442 49.6045 306.253C79.6741 301.875 121.235 299.165 167.155 299.165Z" fill="#4065C5" stroke="#006F41" stroke-width="1.17628"/>
<mask id="mask0_474_557" style="mask-type:alpha" maskUnits="userSpaceOnUse" x="0" y="22" width="334" height="302">
<rect x="0.397044" y="22.6314" width="332.723" height="300.165" fill="url(#paint0_linear_474_557)" stroke="#006F41" stroke-width="0.794088"/>
</mask>
<g mask="url(#mask0_474_557)">
<path d="M167.553 84.1733H214.011V130.446H167.553V84.1733Z" fill="#4065C5"/>
<path d="M213.741 84.1733H260.199V130.446H213.741V84.1733Z" fill="url(#paint1_linear_474_557)"/>
<path d="M259.929 84.1733H306.387V130.446H259.929V84.1733Z" fill="url(#paint2_linear_474_557)"/>
<path d="M306.117 84.1733H352.575V130.446H306.117V84.1733Z" fill="url(#paint3_linear_474_557)"/>
<path d="M167.553 130.177H214.011V176.449H167.553V130.177Z" fill="#4065C5"/>
<path d="M213.741 130.177H260.199V176.449H213.741V130.177Z" fill="url(#paint4_linear_474_557)"/>
<path d="M259.929 130.177H306.387V176.449H259.929V130.177Z" fill="url(#paint5_linear_474_557)"/>
<path d="M306.117 130.177H352.575V176.449H306.117V130.177Z" fill="url(#paint6_linear_474_557)"/>
<path d="M167.553 176.18H214.011V222.452H167.553V176.18Z" fill="#4065C5"/>
<path d="M213.741 176.18H260.199V222.452H213.741V176.18Z" fill="url(#paint7_linear_474_557)"/>
<path d="M259.929 176.18H306.387V222.452H259.929V176.18Z" fill="url(#paint8_linear_474_557)"/>
<path d="M306.117 176.18H352.575V222.452H306.117V176.18Z" fill="url(#paint9_linear_474_557)"/>
<path d="M167.553 222.183H214.011V268.455H167.553V222.183Z" fill="#4065C5"/>
<path d="M213.741 222.183H260.199V268.455H213.741V222.183Z" fill="url(#paint10_linear_474_557)"/>
<path d="M259.929 222.183H306.387V268.455H259.929V222.183Z" fill="url(#paint11_linear_474_557)"/>
<path d="M306.117 222.183H352.575V268.455H306.117V222.183Z" fill="url(#paint12_linear_474_557)"/>
<path d="M167.553 268.186H214.011V314.459H167.553V268.186Z" fill="#4065C5"/>
<path d="M213.741 268.186H260.199V314.459H213.741V268.186Z" fill="#4065C5"/>
<path d="M259.929 268.186H306.387V314.459H259.929V268.186Z" fill="#4065C5"/>
<path d="M306.117 268.186H352.575V314.459H306.117V268.186Z" fill="#4065C5"/>
<path d="M352.295 268.736V314.179H306.667V268.736H352.295ZM305.837 268.736V314.179H260.479V268.736H305.837ZM259.649 268.736V314.179H214.291V268.736H259.649ZM213.461 268.736V314.179H167.833V268.736H213.461ZM352.295 222.732V267.907H306.667V222.732H352.295ZM305.837 222.732V267.907H260.479V222.732H305.837ZM259.649 222.732V267.907H214.291V222.732H259.649ZM213.461 222.732V267.907H167.833V222.732H213.461ZM352.295 176.729V221.903H306.667V176.729H352.295ZM305.837 176.729V221.903H260.479V176.729H305.837ZM259.649 176.729V221.903H214.291V176.729H259.649ZM213.461 176.729V221.903H167.833V176.729H213.461ZM352.295 130.726V175.9H306.667V130.726H352.295ZM305.837 130.726V175.9H260.479V130.726H305.837ZM259.649 130.726V175.9H214.291V130.726H259.649ZM213.461 130.726V175.9H167.833V130.726H213.461ZM352.295 84.4536V129.897H306.667V84.4536H352.295ZM305.837 84.4536V129.897H260.479V84.4536H305.837ZM259.649 84.4536V129.897H214.291V84.4536H259.649ZM213.461 84.4536V129.897H167.833V84.4536H213.461Z" stroke="#006F41" stroke-width="0.559919"/>
</g>
<path d="M167.155 0.587891C213.078 0.587891 254.642 2.98745 284.716 6.86328C299.756 8.80171 311.9 11.1064 320.271 13.6572C324.462 14.934 327.672 16.2625 329.823 17.6172C332.01 18.9941 332.929 20.2862 332.929 21.4404C332.929 22.5946 332.01 23.8867 329.823 25.2637C327.672 26.6184 324.462 27.9469 320.271 29.2236C311.9 31.7744 299.756 34.0792 284.716 36.0176C254.642 39.8934 213.078 42.293 167.155 42.293C121.233 42.293 79.6693 39.8934 49.5957 36.0176C34.5549 34.0791 22.4108 31.7745 14.0391 29.2236C9.84894 27.9469 6.63825 26.6184 4.4873 25.2637C2.30104 23.8867 1.38187 22.5946 1.38184 21.4404C1.38184 20.2862 2.30102 18.9941 4.4873 17.6172C6.63825 16.2625 9.84892 14.934 14.0391 13.6572C22.4108 11.1064 34.5548 8.80172 49.5957 6.86328C79.6693 2.98748 121.233 0.587891 167.155 0.587891Z" fill="#4065C5" stroke="#006F41" stroke-width="1.17628"/>
<line x1="0.999753" y1="323.194" x2="0.999739" y2="21.4403" stroke="black" stroke-width="1.17628"/>
<line x1="332.928" y1="323.194" x2="332.928" y2="21.4403" stroke="black" stroke-width="1.17628"/>
<path d="M157.196 373.922C180.454 375.538 195.208 376.07 218.334 375.973L211.194 403.303C182.747 402.639 162.628 403.034 136.543 399.869L157.196 373.922Z" fill="#4065C5"/>
<path d="M218.334 375.973C246.401 375.173 259.907 373.632 285.441 370.745L293.382 398.141C261.604 401.577 244.812 402.967 211.194 403.303L218.334 375.973Z" fill="url(#paint13_linear_474_557)"/>
<path d="M285.441 370.745C312.74 367.351 321.986 365.668 347.777 360.422L370.011 383.054C338.313 390.318 326.328 393.83 293.382 398.141L285.441 370.745Z" fill="url(#paint14_linear_474_557)"/>
<path d="M347.777 360.422C372.897 354.839 377.174 352.794 397.804 346.129L427.98 363.996C403.022 373.433 398.359 376.115 370.011 383.054L347.777 360.422Z" fill="url(#paint15_linear_474_557)"/>
<path d="M136.543 399.869C162.628 403.034 182.747 402.639 211.194 403.303L201.267 432.684C168.264 431.323 145.045 431.724 114.712 425.935L136.543 399.869Z" fill="#4065C5"/>
<path d="M211.194 403.303C244.812 402.967 261.604 401.577 293.382 398.141L302.117 426.729C262.703 431.029 240.256 433.256 201.267 432.684L211.194 403.303Z" fill="url(#paint16_linear_474_557)"/>
<path d="M293.382 398.141C326.328 393.83 338.313 390.318 370.011 383.054L393.437 407.273C357.343 416.627 342.875 421.65 302.117 426.729L293.382 398.141Z" fill="url(#paint17_linear_474_557)"/>
<path d="M370.011 383.054C398.359 376.115 403.022 373.433 427.98 363.996L457.758 381.466C428.95 393.858 425.106 398.267 393.437 407.273L370.011 383.054Z" fill="url(#paint18_linear_474_557)"/>
<path d="M114.712 425.935C145.045 431.724 168.264 431.323 201.267 432.684L192.533 466.036C156.555 463.545 127.425 461.411 92.4774 452.537L114.712 425.935Z" fill="#4065C5"/>
<path d="M201.267 432.684C240.256 433.256 262.703 431.029 302.117 426.729L312.837 458.889C268.316 463.753 239.778 467.997 192.533 466.036L201.267 432.684Z" fill="url(#paint19_linear_474_557)"/>
<path d="M302.117 426.729C342.875 421.65 357.343 416.627 393.437 407.273L418.848 433.478C376.822 445.622 360.163 452.738 312.837 458.889L302.117 426.729Z" fill="url(#paint20_linear_474_557)"/>
<path d="M393.437 407.273C425.106 398.267 428.95 393.858 457.758 381.466L489.124 399.73C458.786 415.508 455.206 421.808 418.848 433.478L393.437 407.273Z" fill="url(#paint21_linear_474_557)"/>
<path d="M92.4774 452.537C127.425 461.411 156.555 463.545 192.533 466.036L181.415 500.976C175.285 502.207 100.534 493.73 71.037 479.139L92.4774 452.537Z" fill="#4065C5"/>
<path d="M192.533 466.036C239.778 467.997 268.316 463.753 312.837 458.889L323.16 495.02C268.982 501.048 237.992 502.541 181.415 500.976L192.533 466.036Z" fill="url(#paint22_linear_474_557)"/>
<path d="M312.837 458.889C360.163 452.738 376.822 445.622 418.848 433.478L446.641 462.066C402.838 479.07 375.717 486.23 323.16 495.02L312.837 458.889Z" fill="url(#paint23_linear_474_557)"/>
<path d="M418.848 433.478C455.206 421.808 458.786 415.508 489.124 399.73L519.3 417.2C496.074 437.049 479.773 446.698 446.641 462.066L418.848 433.478Z" fill="url(#paint24_linear_474_557)"/>
<path d="M71.037 479.139C100.534 493.73 175.285 502.207 181.415 500.976L164.739 546.239C134.149 543.237 116.705 539.965 84.9336 530.357C67.3707 523.536 58.4629 519.414 43.6414 511.696L71.037 479.139Z" fill="#4065C5"/>
<path d="M181.415 500.976C237.992 502.541 268.982 501.048 323.16 495.02C323.16 495.02 332.027 522.83 337.453 539.886C275.532 551.271 236.985 551.015 164.739 546.239L181.415 500.976Z" fill="#4065C5"/>
<path d="M323.16 495.02C375.717 486.23 402.838 479.07 446.641 462.066L478.007 497.005C432.295 518.167 402.918 528.564 337.453 539.886C332.027 522.83 323.16 495.02 323.16 495.02Z" fill="#4065C5"/>
<path d="M446.641 462.066C479.773 446.698 496.074 437.049 519.3 417.2L552.254 437.052C535.23 461.482 520.809 474.765 478.007 497.005L446.641 462.066Z" fill="#4065C5"/>
<path d="M181.689 501.38C237.991 502.93 268.976 501.44 322.88 495.451C322.881 495.453 322.882 495.455 322.883 495.457C322.949 495.665 323.047 495.972 323.174 496.369C323.427 497.163 323.794 498.316 324.252 499.753C325.168 502.626 326.446 506.636 327.894 511.178C330.74 520.11 334.242 531.104 336.938 539.576C275.473 550.842 237.011 550.607 165.295 545.877L181.689 501.38ZM477.352 496.87C432.028 517.828 402.684 528.183 337.726 539.435C335.025 530.949 331.508 519.904 328.65 510.937C327.203 506.395 325.925 502.385 325.009 499.512C324.551 498.075 324.183 496.922 323.93 496.128C323.826 495.801 323.741 495.534 323.677 495.335C375.858 486.592 402.972 479.43 446.527 462.534L477.352 496.87ZM71.1399 479.631C85.9953 486.891 111.93 492.617 134.924 496.383C146.503 498.278 157.351 499.68 165.69 500.531C169.859 500.956 173.404 501.243 176.101 501.386C177.449 501.457 178.589 501.493 179.49 501.491C180.005 501.49 180.451 501.473 180.818 501.446L164.473 545.813C134.099 542.822 116.692 539.545 85.0568 529.979C67.6955 523.235 58.8056 519.133 44.264 511.572L71.1399 479.631ZM551.683 437.172C543.277 449.2 535.485 458.507 524.544 467.544C513.539 476.633 499.336 485.461 478.096 496.51L447.294 462.199C480.018 447 496.308 437.343 519.339 417.686L551.683 437.172ZM192.819 466.445C239.802 468.371 268.32 464.158 312.546 459.32L322.648 494.677C268.945 500.641 238.014 502.129 181.953 500.593L192.819 466.445ZM445.936 461.911C402.588 478.71 375.526 485.847 323.445 494.569L313.345 459.222C360.274 453.091 377.024 445.984 418.729 433.925L445.936 461.911ZM92.6269 452.983C127.339 461.773 156.339 463.925 192 466.396L181.111 500.62C180.75 500.666 180.209 500.695 179.489 500.697C178.607 500.699 177.483 500.664 176.143 500.593C173.463 500.451 169.932 500.165 165.771 499.741C157.448 498.892 146.616 497.492 135.053 495.599C112.14 491.847 86.4223 486.163 71.6575 478.999L92.6269 452.983ZM518.614 417.26C495.709 436.783 479.464 446.393 446.728 461.587L419.577 433.658C455.333 422.124 459.18 415.769 489.114 400.182L518.614 417.26ZM201.572 433.085C240.29 433.639 262.725 431.424 301.841 427.157L312.304 458.548C268.209 463.374 239.784 467.561 193.041 465.659L201.572 433.085ZM418.102 433.28C376.62 445.289 359.912 452.347 313.11 458.452L302.645 427.061C342.986 422.009 357.533 416.993 393.312 407.716L418.102 433.28ZM114.867 426.367C144.974 432.088 168.12 431.728 200.758 433.061L192.231 465.616C156.614 463.149 127.719 461.012 93.1881 452.304L114.867 426.367ZM488.304 399.711C458.56 415.241 454.803 421.497 418.959 433.024L394.182 407.472C425.233 398.597 429.326 394.14 457.731 381.91L488.304 399.711ZM211.479 403.697C244.811 403.356 261.611 401.972 293.097 398.571L301.597 426.385C262.667 430.631 240.29 432.835 201.818 432.295L211.479 403.697ZM392.679 407.061C357.155 416.282 342.626 421.263 302.398 426.292L293.898 398.473C326.441 394.196 338.503 390.686 369.881 383.491L392.679 407.061ZM136.708 400.287C162.55 403.408 182.576 403.043 210.643 403.688L200.985 432.276C168.359 430.938 145.332 431.3 115.452 425.668L136.708 400.287ZM456.882 381.411C428.754 393.556 424.719 397.947 393.556 406.826L370.776 383.274C398.49 376.466 403.343 373.741 427.942 364.434L456.882 381.411ZM218.642 376.361C246.402 375.561 259.92 374.029 285.152 371.177L292.868 397.796C261.567 401.176 244.799 402.555 211.709 402.899L218.642 376.361ZM369.23 382.826C338.149 389.96 326.096 393.445 293.668 397.702L285.951 371.081C312.832 367.733 322.151 366.037 347.644 360.853L369.23 382.826ZM157.376 374.333C180.351 375.926 195.047 376.458 217.818 376.372L210.888 402.899C182.848 402.251 162.919 402.617 137.297 399.558L157.376 374.333ZM427.068 363.917C402.841 373.097 397.967 375.794 370.135 382.614L348.561 360.653C373.018 355.196 377.469 353.12 397.756 346.562L427.068 363.917Z" stroke="#006F41" stroke-width="0.794088"/>
<defs>
<linearGradient id="paint0_linear_474_557" x1="166.758" y1="22.2344" x2="166.758" y2="323.194" gradientUnits="userSpaceOnUse">
<stop stop-color="#D0FF00"/>
<stop offset="1" stop-color="white"/>
</linearGradient>
<linearGradient id="paint1_linear_474_557" x1="260.064" y1="84.1733" x2="260.064" y2="314.459" gradientUnits="userSpaceOnUse">
<stop stop-color="#D0FF00"/>
<stop offset="1" stop-color="white"/>
</linearGradient>
<linearGradient id="paint2_linear_474_557" x1="260.064" y1="84.1733" x2="260.064" y2="314.459" gradientUnits="userSpaceOnUse">
<stop stop-color="#D0FF00"/>
<stop offset="1" stop-color="white"/>
</linearGradient>
<linearGradient id="paint3_linear_474_557" x1="260.064" y1="84.1733" x2="260.064" y2="314.459" gradientUnits="userSpaceOnUse">
<stop stop-color="#D0FF00"/>
<stop offset="1" stop-color="white"/>
</linearGradient>
<linearGradient id="paint4_linear_474_557" x1="260.064" y1="84.1733" x2="260.064" y2="314.459" gradientUnits="userSpaceOnUse">
<stop stop-color="#D0FF00"/>
<stop offset="1" stop-color="white"/>
</linearGradient>
<linearGradient id="paint5_linear_474_557" x1="260.064" y1="84.1733" x2="260.064" y2="314.459" gradientUnits="userSpaceOnUse">
<stop stop-color="#D0FF00"/>
<stop offset="1" stop-color="white"/>
</linearGradient>
<linearGradient id="paint6_linear_474_557" x1="260.064" y1="84.1733" x2="260.064" y2="314.459" gradientUnits="userSpaceOnUse">
<stop stop-color="#D0FF00"/>
<stop offset="1" stop-color="white"/>
</linearGradient>
<linearGradient id="paint7_linear_474_557" x1="260.064" y1="84.1733" x2="260.064" y2="314.459" gradientUnits="userSpaceOnUse">
<stop stop-color="#D0FF00"/>
<stop offset="1" stop-color="white"/>
</linearGradient>
<linearGradient id="paint8_linear_474_557" x1="260.064" y1="84.1733" x2="260.064" y2="314.459" gradientUnits="userSpaceOnUse">
<stop stop-color="#D0FF00"/>
<stop offset="1" stop-color="white"/>
</linearGradient>
<linearGradient id="paint9_linear_474_557" x1="260.064" y1="84.1733" x2="260.064" y2="314.459" gradientUnits="userSpaceOnUse">
<stop stop-color="#D0FF00"/>
<stop offset="1" stop-color="white"/>
</linearGradient>
<linearGradient id="paint10_linear_474_557" x1="260.064" y1="84.1733" x2="260.064" y2="314.459" gradientUnits="userSpaceOnUse">
<stop stop-color="#D0FF00"/>
<stop offset="1" stop-color="white"/>
</linearGradient>
<linearGradient id="paint11_linear_474_557" x1="260.064" y1="84.1733" x2="260.064" y2="314.459" gradientUnits="userSpaceOnUse">
<stop stop-color="#D0FF00"/>
<stop offset="1" stop-color="white"/>
</linearGradient>
<linearGradient id="paint12_linear_474_557" x1="260.064" y1="84.1733" x2="260.064" y2="314.459" gradientUnits="userSpaceOnUse">
<stop stop-color="#D0FF00"/>
<stop offset="1" stop-color="white"/>
</linearGradient>
<linearGradient id="paint13_linear_474_557" x1="284.583" y1="359.147" x2="306.141" y2="545.008" gradientUnits="userSpaceOnUse">
<stop stop-color="#D0FF00"/>
<stop offset="1" stop-color="white"/>
</linearGradient>
<linearGradient id="paint14_linear_474_557" x1="284.583" y1="359.147" x2="306.141" y2="545.008" gradientUnits="userSpaceOnUse">
<stop stop-color="#D0FF00"/>
<stop offset="1" stop-color="white"/>
</linearGradient>
<linearGradient id="paint15_linear_474_557" x1="284.583" y1="359.147" x2="306.141" y2="545.008" gradientUnits="userSpaceOnUse">
<stop stop-color="#D0FF00"/>
<stop offset="1" stop-color="white"/>
</linearGradient>
<linearGradient id="paint16_linear_474_557" x1="284.583" y1="359.147" x2="306.141" y2="545.008" gradientUnits="userSpaceOnUse">
<stop stop-color="#D0FF00"/>
<stop offset="1" stop-color="white"/>
</linearGradient>
<linearGradient id="paint17_linear_474_557" x1="284.583" y1="359.147" x2="306.141" y2="545.008" gradientUnits="userSpaceOnUse">
<stop stop-color="#D0FF00"/>
<stop offset="1" stop-color="white"/>
</linearGradient>
<linearGradient id="paint18_linear_474_557" x1="284.583" y1="359.147" x2="306.141" y2="545.008" gradientUnits="userSpaceOnUse">
<stop stop-color="#D0FF00"/>
<stop offset="1" stop-color="white"/>
</linearGradient>
<linearGradient id="paint19_linear_474_557" x1="284.583" y1="359.147" x2="306.141" y2="545.008" gradientUnits="userSpaceOnUse">
<stop stop-color="#D0FF00"/>
<stop offset="1" stop-color="white"/>
</linearGradient>
<linearGradient id="paint20_linear_474_557" x1="284.583" y1="359.147" x2="306.141" y2="545.008" gradientUnits="userSpaceOnUse">
<stop stop-color="#D0FF00"/>
<stop offset="1" stop-color="white"/>
</linearGradient>
<linearGradient id="paint21_linear_474_557" x1="284.583" y1="359.147" x2="306.141" y2="545.008" gradientUnits="userSpaceOnUse">
<stop stop-color="#D0FF00"/>
<stop offset="1" stop-color="white"/>
</linearGradient>
<linearGradient id="paint22_linear_474_557" x1="284.583" y1="359.147" x2="306.141" y2="545.008" gradientUnits="userSpaceOnUse">
<stop stop-color="#D0FF00"/>
<stop offset="1" stop-color="white"/>
</linearGradient>
<linearGradient id="paint23_linear_474_557" x1="284.583" y1="359.147" x2="306.141" y2="545.008" gradientUnits="userSpaceOnUse">
<stop stop-color="#D0FF00"/>
<stop offset="1" stop-color="white"/>
</linearGradient>
<linearGradient id="paint24_linear_474_557" x1="284.583" y1="359.147" x2="306.141" y2="545.008" gradientUnits="userSpaceOnUse">
<stop stop-color="#D0FF00"/>
<stop offset="1" stop-color="white"/>
</linearGradient>
</defs>
</svg>
