<svg width="712" height="543" viewBox="0 0 712 543" fill="none" xmlns="http://www.w3.org/2000/svg">
<path d="M168.541 301.645C214.842 301.645 256.747 304.377 287.065 308.791C302.229 310.999 314.47 313.624 322.906 316.527C327.128 317.981 330.362 319.492 332.529 321.034C334.716 322.59 335.688 324.081 335.688 325.473C335.688 326.864 334.716 328.355 332.529 329.91C330.362 331.452 327.128 332.964 322.906 334.417C314.47 337.321 302.229 339.946 287.065 342.153C256.747 346.567 214.842 349.3 168.541 349.3C122.24 349.3 80.3355 346.567 50.0166 342.153C34.8527 339.946 22.6122 337.321 14.1758 334.417C9.95377 332.964 6.71983 331.452 4.55273 329.91C2.36647 328.355 1.39378 326.864 1.39355 325.473C1.39355 324.081 2.36622 322.59 4.55273 321.034C6.71983 319.492 9.95377 317.981 14.1758 316.527C22.6122 313.624 34.8527 310.999 50.0166 308.791C80.3355 304.377 122.24 301.645 168.541 301.645Z" fill="#4065C5" stroke="#006F41" stroke-width="1.18603"/>
<mask id="mask0_474_558" style="mask-type:alpha" maskUnits="userSpaceOnUse" x="0" y="22" width="337" height="304">
<rect x="0.400335" y="22.819" width="335.481" height="302.653" fill="url(#paint0_linear_474_558)" stroke="#006F41" stroke-width="0.800669"/>
</mask>
<g mask="url(#mask0_474_558)">
<path d="M336 82H382.843V128.656H336V82Z" fill="#4065C5"/>
<path d="M382.571 82H429.414V128.656H382.571V82Z" fill="white"/>
<path d="M429.142 82H475.985V128.656H429.142V82Z" fill="white"/>
<path d="M475.713 82H522.556V128.656H475.713V82Z" fill="white"/>
<path d="M336 128.385H382.843V175.04H336V128.385Z" fill="#4065C5"/>
<path d="M382.571 128.385H429.414V175.04H382.571V128.385Z" fill="white"/>
<path d="M429.142 128.385H475.985V175.04H429.142V128.385Z" fill="white"/>
<path d="M475.713 128.385H522.556V175.04H475.713V128.385Z" fill="white"/>
<path d="M336 174.769H382.843V221.425H336V174.769Z" fill="#4065C5"/>
<path d="M382.571 174.769H429.414V221.425H382.571V174.769Z" fill="white"/>
<path d="M429.142 174.769H475.985V221.425H429.142V174.769Z" fill="white"/>
<path d="M475.713 174.769H522.556V221.425H475.713V174.769Z" fill="white"/>
<path d="M336 221.154H382.843V267.81H336V221.154Z" fill="#4065C5"/>
<path d="M382.571 221.154H429.414V267.81H382.571V221.154Z" fill="white"/>
<path d="M429.142 221.154H475.985V267.81H429.142V221.154Z" fill="white"/>
<path d="M475.713 221.154H522.556V267.81H475.713V221.154Z" fill="white"/>
<path d="M336 267.538H382.843V314.194H336V267.538Z" fill="#4065C5"/>
<path d="M382.571 267.538H429.414V314.194H382.571V267.538Z" fill="#4065C5"/>
<path d="M429.142 267.538H475.985V314.194H429.142V267.538Z" fill="#4065C5"/>
<path d="M475.713 267.538H522.556V314.194H475.713V267.538Z" fill="#4065C5"/>
<path d="M522.273 268.092V313.912H476.268V268.092H522.273ZM475.431 268.092V313.912H429.696V268.092H475.431ZM428.859 268.092V313.912H383.126V268.092H428.859ZM382.289 268.092V313.912H336.282V268.092H382.289ZM522.273 221.707V267.256H476.268V221.707H522.273ZM475.431 221.707V267.256H429.696V221.707H475.431ZM428.859 221.707V267.256H383.126V221.707H428.859ZM382.289 221.707V267.256H336.282V221.707H382.289ZM522.273 175.322V220.871H476.268V175.322H522.273ZM475.431 175.322V220.871H429.696V175.322H475.431ZM428.859 175.322V220.871H383.126V175.322H428.859ZM382.289 175.322V220.871H336.282V175.322H382.289ZM522.273 128.938V174.487H476.268V128.938H522.273ZM475.431 128.938V174.487H429.696V128.938H475.431ZM428.859 128.938V174.487H383.126V128.938H428.859ZM382.289 128.938V174.487H336.282V128.938H382.289ZM522.273 82.2822V128.103H476.268V82.2822H522.273ZM475.431 82.2822V128.103H429.696V82.2822H475.431ZM428.859 82.2822V128.103H383.126V82.2822H428.859ZM382.289 82.2822V128.103H336.282V82.2822H382.289Z" stroke="#006F41" stroke-width="0.56456"/>
</g>
<path d="M168.541 0.592773C214.844 0.592773 256.752 3.01199 287.075 6.91992C302.241 8.87445 314.486 11.1985 322.927 13.7705C327.152 15.0578 330.389 16.3968 332.558 17.7627C334.762 19.1511 335.688 20.4544 335.688 21.6182C335.688 22.7819 334.762 24.0844 332.558 25.4727C330.389 26.8386 327.152 28.1785 322.927 29.4658C314.486 32.0378 302.241 34.3619 287.075 36.3164C256.752 40.2243 214.844 42.6436 168.541 42.6436C122.238 42.6436 80.3297 40.2243 50.0068 36.3164C34.8412 34.3619 22.5964 32.0378 14.1553 29.4658C9.93046 28.1785 6.69317 26.8386 4.52441 25.4727C2.32033 24.0844 1.3936 22.7819 1.39355 21.6182C1.39355 20.4544 2.32001 19.1511 4.52441 17.7627C6.69316 16.3968 9.93048 15.0578 14.1553 13.7705C22.5964 11.1985 34.8412 8.87445 50.0068 6.91992C80.3297 3.01198 122.238 0.592775 168.541 0.592773Z" fill="#4065C5" stroke="#006F41" stroke-width="1.18603"/>
<line x1="1.00855" y1="325.873" x2="1.00854" y2="21.6182" stroke="black" stroke-width="1.18603"/>
<line x1="335.688" y1="325.873" x2="335.688" y2="21.6182" stroke="black" stroke-width="1.18603"/>
<path d="M344.624 357.78L390.779 352.159L393.21 370.431C368.805 375.002 356.87 376.252 334.254 379.295L344.624 357.78Z" fill="#4065C5"/>
<path d="M390.779 352.159C409.103 348.54 419.334 346.279 437.528 341.569L454.307 356.956C431.377 362.795 417.418 366.128 393.21 370.431L390.779 352.159Z" fill="url(#paint1_linear_474_558)"/>
<path d="M437.528 341.569C453.687 336.729 462.92 333.762 479.81 327.759C479.81 327.759 495.325 333.972 505.267 337.953C485.846 346.287 474.772 350.595 454.307 356.956L437.528 341.569Z" fill="url(#paint2_linear_474_558)"/>
<path d="M479.81 327.759C490.63 322.766 496.37 319.883 506.001 314.576L537.884 320.581C525.941 327.645 518.959 331.503 505.267 337.953C495.325 333.972 479.81 327.759 479.81 327.759Z" fill="url(#paint3_linear_474_558)"/>
<path d="M334.254 379.295C356.87 376.252 368.805 375.002 393.21 370.431L395.978 392.506C366.041 398.617 349.684 400.606 320.727 405.015L334.254 379.295Z" fill="#4065C5"/>
<path d="M393.21 370.431C417.418 366.128 431.377 362.795 454.307 356.956L473.556 374.535C444.392 383.828 427.352 388.081 395.978 392.506L393.21 370.431Z" fill="url(#paint4_linear_474_558)"/>
<path d="M454.307 356.956C474.772 350.595 485.846 346.287 505.267 337.953C536.353 350.532 536.523 350.444 536.523 350.444C514.482 360.803 501.962 366.55 473.556 374.535L454.307 356.956Z" fill="url(#paint5_linear_474_558)"/>
<path d="M505.267 337.953C518.959 331.503 525.941 327.645 537.884 320.581L568.536 326.294C557.508 336.343 551.561 341.743 536.523 350.444C536.523 350.444 536.353 350.532 505.267 337.953Z" fill="url(#paint6_linear_474_558)"/>
<path d="M320.727 405.015C349.684 400.606 366.041 398.617 395.978 392.506L399.292 420.718C362.092 426.213 342.782 427.882 307.629 429.09L320.727 405.015Z" fill="#4065C5"/>
<path d="M395.978 392.506C427.352 388.081 444.392 383.828 473.556 374.535L500.585 398.255C462.224 409.779 439.473 414.577 399.292 420.718L395.978 392.506Z" fill="url(#paint7_linear_474_558)"/>
<path d="M473.556 374.535C501.962 366.55 514.482 360.803 536.523 350.444L573.574 364.832C549.166 378.449 534.313 385.922 500.585 398.255L473.556 374.535Z" fill="url(#paint8_linear_474_558)"/>
<path d="M536.523 350.444C551.561 341.743 557.508 336.343 568.536 326.294L605.347 333.468C594.793 349.064 586.119 355.166 573.574 364.832L536.523 350.444Z" fill="url(#paint9_linear_474_558)"/>
<path d="M307.629 429.09C342.782 427.882 362.092 426.213 399.292 420.718L403.124 454.755C358.464 458.637 334.639 458.726 293.206 457.083L307.629 429.09Z" fill="#4065C5"/>
<path d="M399.292 420.718C439.473 414.577 462.224 409.779 500.585 398.255L532.241 428.797C482.902 443.381 454.534 448.753 403.124 454.755L399.292 420.718Z" fill="url(#paint10_linear_474_558)"/>
<path d="M500.585 398.255C534.313 385.922 549.166 378.449 573.574 364.832L618.99 382.896C591.073 404.517 571.481 414.202 532.241 428.797L500.585 398.255Z" fill="url(#paint11_linear_474_558)"/>
<path d="M573.574 364.832C586.119 355.166 594.793 349.064 605.347 333.468L642.991 340.97C640.594 355.469 635.912 364.498 618.99 382.896L573.574 364.832Z" fill="url(#paint12_linear_474_558)"/>
<path d="M293.206 457.083C334.639 458.726 358.464 458.637 403.124 454.755L407.914 508.588C378.654 509.358 362.439 508.719 333.879 506.023C308.327 502.932 296.397 499.787 277.432 492.812L293.206 457.083Z" fill="#4065C5"/>
<path d="M403.124 454.755C454.534 448.753 482.902 443.381 532.241 428.797L578.945 474.881C517.628 497.618 479.954 504.675 407.914 508.588L403.124 454.755Z" fill="#4065C5"/>
<path d="M532.241 428.797C571.481 414.202 591.073 404.517 618.99 382.896L681.793 406.647C659.354 435.041 638.783 450.173 578.945 474.881L532.241 428.797Z" fill="#4065C5"/>
<path d="M618.99 382.896C635.912 364.498 640.594 355.469 642.991 340.97L688.389 349.792C696.792 371.489 694.018 383.998 681.793 406.647L618.99 382.896Z" fill="#4065C5"/>
<path d="M403.557 455.107C454.664 449.129 483.027 443.75 532.127 429.247L578.215 474.723C517.398 497.23 479.801 504.263 408.278 508.166L403.557 455.107ZM681.137 406.827C670.059 420.79 659.399 431.527 644.17 441.814C628.818 452.184 608.812 462.105 579.036 474.409L532.967 428.952C571.757 414.5 591.331 404.798 619.056 383.349L681.137 406.827ZM293.463 457.493C334.619 459.121 358.434 459.029 402.76 455.188L407.477 508.197C378.506 508.95 362.326 508.305 333.928 505.625C308.586 502.56 296.674 499.444 277.97 492.583L293.463 457.493ZM688.095 350.143C692.218 360.852 693.582 369.28 692.43 377.809C691.279 386.326 687.614 394.982 681.605 406.148L619.682 382.729C627.921 373.741 633.235 366.976 636.786 360.667C640.332 354.367 642.112 348.539 643.315 341.441L688.095 350.143ZM531.467 428.606C482.686 442.998 454.385 448.356 403.476 454.311L399.732 421.056C439.614 414.952 462.349 410.15 500.474 398.705L531.467 428.606ZM618.187 383.007C590.662 404.252 571.135 413.893 532.337 428.334L501.323 398.41C534.574 386.227 549.422 378.759 573.602 365.273L618.187 383.007ZM307.878 429.481C342.768 428.278 362.076 426.61 398.941 421.174L402.68 454.392C358.528 458.217 334.757 458.319 293.85 456.707L307.878 429.481ZM642.529 341.285C641.338 348.326 639.583 354.067 636.088 360.274C632.552 366.556 627.228 373.331 618.88 382.421L574.376 364.72C586.563 355.346 595.158 349.173 605.528 333.912L642.529 341.285ZM499.777 398.078C461.983 409.406 439.31 414.187 399.641 420.259L396.421 392.846C427.496 388.448 444.531 384.197 473.461 374.985L499.777 398.078ZM320.983 405.381C349.673 401.015 366.02 399.017 395.631 392.985L398.848 420.378C362.162 425.789 342.89 427.462 308.316 428.664L320.983 405.381ZM572.633 364.896C548.734 378.212 533.875 385.647 500.67 397.797L474.372 374.719C502.244 366.847 514.767 361.11 536.537 350.879L572.633 364.896ZM604.672 333.744C594.362 348.837 585.822 354.894 573.508 364.376L537.442 350.371C551.923 341.93 557.892 336.534 568.656 326.725L604.672 333.744ZM472.773 374.363C444.154 383.465 427.179 387.684 396.324 392.051L393.654 370.758C417.572 366.498 431.503 363.174 454.197 357.397L472.773 374.363ZM334.511 379.664C356.861 376.659 368.802 375.397 392.864 370.901L395.534 392.187C366.111 398.183 349.811 400.19 321.449 404.5L334.511 379.664ZM505.271 338.386C520.711 344.634 528.488 347.742 532.405 349.288C533.959 349.902 534.907 350.268 535.485 350.489C514.043 360.562 501.512 366.248 473.66 374.089L455.09 357.13C475.095 350.893 486.145 346.591 505.271 338.386ZM567.67 326.54C557.065 336.201 551.093 341.536 536.478 350.006C536.406 349.98 536.301 349.943 536.151 349.887C535.653 349.7 534.662 349.319 532.698 348.543C528.844 347.022 521.244 343.984 506.263 337.923C519.38 331.722 526.327 327.88 537.959 321.002L567.67 326.54ZM453.489 356.75C431.118 362.441 417.24 365.743 393.55 369.963L391.225 352.478C409.254 348.913 419.468 346.654 437.418 342.01L453.489 356.75ZM390.434 352.605L392.762 370.107C368.886 374.568 356.97 375.843 334.936 378.8L344.889 358.15L390.434 352.605ZM479.838 328.202C479.954 328.248 480.125 328.317 480.347 328.405C480.79 328.583 481.436 328.841 482.241 329.164C483.851 329.808 486.101 330.709 488.661 331.734C493.479 333.664 499.397 336.033 504.22 337.964C485.423 346.017 474.403 350.283 454.408 356.505L438.317 341.749C454.022 337.04 463.23 334.074 479.8 328.186C479.812 328.191 479.824 328.196 479.838 328.202ZM536.761 320.777C525.423 327.469 518.475 331.284 505.253 337.516C500.307 335.535 494.025 333.02 488.959 330.992C486.399 329.966 484.148 329.065 482.538 328.42C481.832 328.138 481.25 327.904 480.818 327.731C491.063 322.992 496.755 320.124 506.067 314.995L536.761 320.777Z" stroke="#006F41" stroke-width="0.800669"/>
<defs>
<linearGradient id="paint0_linear_474_558" x1="168.141" y1="22.4187" x2="168.141" y2="325.872" gradientUnits="userSpaceOnUse">
<stop stop-color="#D0FF00"/>
<stop offset="1" stop-color="white"/>
</linearGradient>
<linearGradient id="paint1_linear_474_558" x1="463.248" y1="323.431" x2="499.485" y2="498.399" gradientUnits="userSpaceOnUse">
<stop stop-color="#D0FF00"/>
<stop offset="1" stop-color="white"/>
</linearGradient>
<linearGradient id="paint2_linear_474_558" x1="463.248" y1="323.431" x2="499.485" y2="498.399" gradientUnits="userSpaceOnUse">
<stop stop-color="#D0FF00"/>
<stop offset="1" stop-color="white"/>
</linearGradient>
<linearGradient id="paint3_linear_474_558" x1="463.248" y1="323.431" x2="499.485" y2="498.399" gradientUnits="userSpaceOnUse">
<stop stop-color="#D0FF00"/>
<stop offset="1" stop-color="white"/>
</linearGradient>
<linearGradient id="paint4_linear_474_558" x1="463.248" y1="323.431" x2="499.485" y2="498.399" gradientUnits="userSpaceOnUse">
<stop stop-color="#D0FF00"/>
<stop offset="1" stop-color="white"/>
</linearGradient>
<linearGradient id="paint5_linear_474_558" x1="463.248" y1="323.431" x2="499.485" y2="498.399" gradientUnits="userSpaceOnUse">
<stop stop-color="#D0FF00"/>
<stop offset="1" stop-color="white"/>
</linearGradient>
<linearGradient id="paint6_linear_474_558" x1="463.248" y1="323.431" x2="499.485" y2="498.399" gradientUnits="userSpaceOnUse">
<stop stop-color="#D0FF00"/>
<stop offset="1" stop-color="white"/>
</linearGradient>
<linearGradient id="paint7_linear_474_558" x1="463.248" y1="323.431" x2="499.485" y2="498.399" gradientUnits="userSpaceOnUse">
<stop stop-color="#D0FF00"/>
<stop offset="1" stop-color="white"/>
</linearGradient>
<linearGradient id="paint8_linear_474_558" x1="463.248" y1="323.431" x2="499.485" y2="498.399" gradientUnits="userSpaceOnUse">
<stop stop-color="#D0FF00"/>
<stop offset="1" stop-color="white"/>
</linearGradient>
<linearGradient id="paint9_linear_474_558" x1="463.248" y1="323.431" x2="499.485" y2="498.399" gradientUnits="userSpaceOnUse">
<stop stop-color="#D0FF00"/>
<stop offset="1" stop-color="white"/>
</linearGradient>
<linearGradient id="paint10_linear_474_558" x1="463.248" y1="323.431" x2="499.485" y2="498.399" gradientUnits="userSpaceOnUse">
<stop stop-color="#D0FF00"/>
<stop offset="1" stop-color="white"/>
</linearGradient>
<linearGradient id="paint11_linear_474_558" x1="463.248" y1="323.431" x2="499.485" y2="498.399" gradientUnits="userSpaceOnUse">
<stop stop-color="#D0FF00"/>
<stop offset="1" stop-color="white"/>
</linearGradient>
<linearGradient id="paint12_linear_474_558" x1="463.248" y1="323.431" x2="499.485" y2="498.399" gradientUnits="userSpaceOnUse">
<stop stop-color="#D0FF00"/>
<stop offset="1" stop-color="white"/>
</linearGradient>
</defs>
</svg>
